<?xml version="1.0" encoding="UTF-8" standalone="no"?>
<!-- Created with Inkscape (http://www.inkscape.org/) -->
<svg
   xmlns:dc="http://purl.org/dc/elements/1.1/"
   xmlns:cc="http://web.resource.org/cc/"
   xmlns:rdf="http://www.w3.org/1999/02/22-rdf-syntax-ns#"
   xmlns:svg="http://www.w3.org/2000/svg"
   xmlns="http://www.w3.org/2000/svg"
   xmlns:sodipodi="http://sodipodi.sourceforge.net/DTD/sodipodi-0.dtd"
   xmlns:inkscape="http://www.inkscape.org/namespaces/inkscape"
   width="424.74011"
   height="600"
   id="svg2"
   sodipodi:version="0.32"
   inkscape:version="0.45"
   sodipodi:modified="true"
   version="1.0">
  <defs
     id="defs4" />
  <sodipodi:namedview
     id="base"
     pagecolor="#ffffff"
     bordercolor="#666666"
     borderopacity="1.0"
     inkscape:pageopacity="0.0"
     inkscape:pageshadow="2"
     inkscape:zoom="0.20102221"
     inkscape:cx="487.78786"
     inkscape:cy="788.90783"
     inkscape:document-units="px"
     inkscape:current-layer="layer1"
     inkscape:window-width="1280"
     inkscape:window-height="749"
     inkscape:window-x="0"
     inkscape:window-y="26" />
  <metadata
     id="metadata7">
    <rdf:RDF>
      <cc:Work
         rdf:about="">
        <dc:format>image/svg+xml</dc:format>
        <dc:type
           rdf:resource="http://purl.org/dc/dcmitype/StillImage" />
      </cc:Work>
    </rdf:RDF>
  </metadata>
  <g
     inkscape:label="Ebene 1"
     inkscape:groupmode="layer"
     id="layer1"
     transform="translate(-139.03637,-216.13294)">
    <g
       id="g13824"
       transform="matrix(3.6421639,0,0,3.6421639,-890.92251,-519.49296)"
       style="opacity:1">
      <path
         sodipodi:nodetypes="cssz"
         id="path3149"
         d="M 340.71429,364.86218 C 319.36786,364.89529 269.84138,253.09156 288.92857,219.50504 C 301.20385,197.90502 384.59292,199.30319 393.92857,219.50504 C 411.24768,256.9827 362.06072,364.82907 340.71429,364.86218 z "
         style="fill:#ffcc33;fill-opacity:1;fill-rule:evenodd;stroke:none;stroke-width:3.70000005;stroke-linecap:butt;stroke-linejoin:miter;stroke-miterlimit:4;stroke-dasharray:none;stroke-opacity:1" />
      <path
         id="path4120"
         d="M 297.14286,212.71933 L 384.64286,299.50504 L 372.85714,326.6479 L 284.64286,239.1479 L 287.85714,219.86218 L 297.14286,212.71933 z "
         style="fill:#000000;fill-opacity:1;fill-rule:evenodd;stroke:#000000;stroke-width:1px;stroke-linecap:butt;stroke-linejoin:miter;stroke-opacity:1" />
      <path
         sodipodi:nodetypes="cccssscccccscscc"
         id="path5091"
         d="M 392.0758,241.36875 C 371.86976,251.4745 376.68185,264.23665 369.14066,267.21714 C 370.40122,250.98922 364.52396,247.04446 360.35714,239.86218 C 360.79541,240.30045 356.65199,242.36924 351.78571,242.71933 C 350.38588,242.82004 350.41175,245.15339 346.42857,246.6479 C 344.92885,247.2106 343.24484,250.92232 342.14286,251.00066 C 340.50792,251.11689 340.71429,249.86218 340.71429,249.86218 C 340.19574,248.45995 337.69974,249.14819 336.78571,249.1479 C 331.29564,245.12795 335.6006,241.94837 338.15818,239.4941 C 340.01714,235.30919 341.93589,231.2239 344.93295,228.9358 C 347.07087,225.75828 347.88885,220.49926 350.71429,219.72808 C 351.88764,217.0459 348.38013,213.63017 348.57143,212.71933 C 348.71333,212.0437 352.18718,212.69147 353.57143,215.21933 C 355.30274,213.55266 351.7831,210.31971 352.5,210.21933 C 353.66927,210.0556 358.09226,211.00952 360,216.29075 C 372.39592,222.81819 385.53318,225.34347 392.0758,241.36875 z "
         style="fill:#000000;fill-opacity:1;fill-rule:evenodd;stroke:#000000;stroke-width:0.1;stroke-linecap:butt;stroke-linejoin:miter;stroke-miterlimit:4;stroke-dasharray:none;stroke-opacity:1" />
      <path
         style="fill:none;fill-opacity:1;fill-rule:evenodd;stroke:#003300;stroke-width:3.70000005;stroke-linecap:butt;stroke-linejoin:miter;stroke-miterlimit:4;stroke-dasharray:none;stroke-opacity:1"
         d="M 340.71429,364.86218 C 319.36786,364.89529 269.84138,253.09156 288.92857,219.50504 C 301.20385,197.90502 384.59292,199.30319 393.92857,219.50504 C 411.24768,256.9827 362.06072,364.82907 340.71429,364.86218 z "
         id="path11884"
         sodipodi:nodetypes="cssz" />
    </g>
  </g>
</svg>
