<?xml version="1.0" encoding="utf-8"?>
<!-- Generator: Adobe Illustrator 21.1.0, SVG Export Plug-In . SVG Version: 6.00 Build 0)  -->
<svg version="1.1" id="Layer_1" xmlns="http://www.w3.org/2000/svg" xmlns:xlink="http://www.w3.org/1999/xlink" x="0px" y="0px"
	 viewBox="0 0 75 80" style="enable-background:new 0 0 80 80;" xml:space="preserve">
<style type="text/css">
	.st0{fill:#D22630;}
</style>
<g>
	<path class="st0" d="M68.2,17c1.1,0,1.9,0.3,2.4,1c0.8,0.9,1.1,2.3,0.9,3.9c-0.7,5.8-3.7,10.6-6.8,15.8l-0.1,0.2
		c-0.1,0.1-0.2,0.4-0.6,1.2L55.8,29c1.3-2.3,4-7.3,5.4-10c0.3-0.5,0.4-0.6,0.6-0.7c2.4-0.9,4.4-1.3,6.3-1.4C68.1,17,68.2,17,68.2,17
		L68.2,17 M68.2,15.3c-0.1,0-0.2,0-0.3,0c-2.4,0.1-4.6,0.7-6.8,1.5c-0.8,0.3-1.2,0.8-1.6,1.5c-1.5,2.8-4.4,8.3-5.9,11
		c3.4,4.1,6.9,8.3,10.7,12.9c0.1-0.3,1.6-3.2,1.8-3.4c3.2-5.2,6.3-10.4,7.1-16.6C73.7,18.8,72.3,15.3,68.2,15.3L68.2,15.3z"/>
	<path class="st0" d="M6.8,17c2.3,0,4.5,0.7,6.6,1.5c0,0,0,0,0,0c1.4,2.5,2.8,5,4.2,7.5l0.7,1.3c0.1,0.1,0.2,0.3,1.7,2
		c0.2,0.2,0.4,0.4,0.6,0.6c-1.3,1.5-2.8,3-4.2,4.4c-1.6,1.6-3.2,3.2-4.7,4.9c-0.6-0.5-1.3-1.2-1.5-1.6c-2.9-4.6-5.6-9.1-6.7-14.1
		c-0.3-1.3-0.3-2.9,0-4.8c0.1-1,1.4-1.7,2.5-1.8C6.3,17,6.6,17,6.8,17L6.8,17 M6.8,15.3c-0.3,0-0.6,0-0.9,0
		c-1.9,0.1-3.9,1.4-4.2,3.3c-0.2,1.8-0.3,3.7,0.1,5.4c1.2,5.4,4,10.1,6.9,14.7c0.4,0.6,2.5,2.8,3.3,2.8c0.1,0,0.2,0,0.3-0.1
		c3.2-4.1,7.2-7.2,10.6-11.4c-0.2,0-3.1-3.4-3.1-3.4c-1.6-3-3.3-5.9-4.9-8.9c-0.2-0.3-0.5-0.6-0.9-0.7C11.7,16,9.4,15.3,6.8,15.3
		L6.8,15.3z M23,29.9C23,29.9,23,30,23,29.9C23,30,23,30,23,29.9C23,30,23,30,23,29.9L23,29.9z"/>
	<path class="st0" d="M47.2,39.5c3.2,3.5,6,7.3,8.2,10.4c-0.7,0.7-1.5,1.6-2.4,2.6c-1.4,1.5-2.9,3-3.8,4l-1.5,1.6l1.9,1.1
		c0.7,0.4,1.3,0.7,2,1.1c2.1,1.2,4.3,2.4,6.4,3.6c0.2,0.1,0.4,0.3,0.4,0.4c1.2,2.7,1.7,5.1,1.6,7.5c-0.1,1.6-1.2,2.8-2.8,2.9
		c-0.3,0-0.5,0-0.8,0c-1.9,0-3.8-0.4-5.9-1.1c-2-0.7-3.9-1.8-5.7-2.8c-1.5-0.8-2.9-1.8-4.5-2.7c-0.7-0.4-1.4-0.9-2.1-1.3l-1-0.6
		l-1,0.7c-4.6,3.2-9.1,6.1-14.4,7.4c-1,0.2-1.7,0.4-2.5,0.4c-0.5,0-1,0-1.6-0.1c-2-0.6-3-1.9-3-4.1c0-2.5,0.7-4.4,1.4-5.9l0-0.1
		c0.1-0.2,0.5-0.5,1.1-0.8c1.9-1.1,3.6-2,5.4-3c0.8-0.4,1.6-0.9,2.4-1.3l1.9-1.1l-1.4-1.6c-0.8-0.9-2-2.3-3.3-3.7
		c-0.9-1-1.8-2-2.6-2.9l5.7-7.3l2.3-3c1.1,1.2,2.4,2.5,3.7,3.8c1.7,1.7,3.3,3.4,4.4,4.5l1.2,1.3l1.3-1.2c1.3-1.3,3.1-3,4.9-4.8
		C44.8,41.9,46.1,40.6,47.2,39.5 M47.2,36.9c-2.6,2.6-7.4,7.3-9.9,9.8c-2.4-2.4-6.8-7-9.5-9.7c-3.5,4.5-6.9,8.8-10.2,12.9
		c1.8,2.1,5.2,5.8,6.9,7.7c-2.7,1.5-5.1,2.8-7.8,4.4c-0.6,0.3-1.7,1.1-1.9,1.7c-0.7,1.4-1.6,3.7-1.6,6.7c0.1,3.1,1.8,5.1,4.4,5.8
		c0.7,0.1,1.4,0.2,2,0.2c1,0,1.9-0.1,2.9-0.4c5.6-1.4,10.3-4.5,15-7.7c2.2,1.4,4.4,2.8,6.6,4.1c3.9,2.2,7.9,4.1,12.4,4.1
		c0.3,0,0.6,0,0.9,0c2.5-0.1,4.4-2.1,4.5-4.6c0.1-2.9-0.6-5.7-1.8-8.3c-0.2-0.5-0.7-0.9-1.1-1.2c-2.9-1.7-5.7-3.2-8.4-4.8
		c1.7-1.9,5.5-5.9,7.1-7.6C54.5,45.4,51.1,41,47.2,36.9L47.2,36.9z"/>
	<g>
		<path class="st0" d="M3.9,14.7c3.5-3.5,7-7.2,10.7-10.7c1.8-1.7,4.3-1.5,6.4-0.9c2.9,0.8,5.7,1.9,8.4,3.2c2.3,1.1,4.4,2.4,6.5,3.9
			c1.2,0.8,1.9,0.9,3.1,0C43,7.4,47.1,5,51.7,3.6c1.2-0.4,2.5-0.6,3.8-0.8c2.4-0.3,4.4,0.3,6.1,2.2c2.7,2.9,5.6,5.7,8.4,8.5
			c0.3,0.3,0.6,0.7,1.2,1.3c-4.5-1.2-8.2,0.2-11.8,1.9c-3,1.4-5.9,3.2-9.1,4.9c1.7,1.7,3.2,3.3,4.7,4.8c1.3,1.3,2.6,2.4,3.8,3.8
			c2.3,2.8,4.7,5.6,6.7,8.6c3.5,5.4,7.1,10.8,8.5,17.3c0.7,3.2,0.3,6-2.4,8.3c-2.9,2.5-5.4,5.4-8.1,8.1c-0.3,0.3-0.6,0.6-1.2,1.1
			c1.3-5.3-0.8-9.7-2.9-14c-2.3-4.8-5.6-9-8.9-13.2c-3.7-4.6-7.4-9.2-11.8-13.2c-0.4-0.3-0.7-0.7-1.3-1.1c-2.4,2.5-4.9,4.8-7.1,7.4
			c-2.2,2.5-4.2,5-6.3,7.6C19.4,53,15,59,12.9,66.3c-0.7,2.4-1.1,4.8,0.1,7.6c-0.5-0.5-0.8-0.7-1.1-1c-3-3-5.9-6.1-9-9
			c-2-1.9-2.5-4.1-2.1-6.6c0.5-3.4,1.7-6.5,3.3-9.5c3.1-5.8,6.5-11.4,11-16.3c2.6-2.9,5.4-5.6,8.1-8.4c0.4-0.4,0.8-0.8,1.5-1.4
			C18,18,12,13.4,3.9,14.7z"/>
	</g>
</g>
</svg>
